<svg xmlns="http://www.w3.org/2000/svg" version="1.1" xmlns:xlink="http://www.w3.org/1999/xlink" xmlns:svgjs="http://svgjs.dev/svgjs" width="1500" height="1500" viewBox="0 0 1500 1500"><rect width="1500" height="1500" fill="#ffffff"></rect><g transform="matrix(0.6666666666666666,0,0,0.6666666666666666,249.39393939393938,438.5856950067477)"><svg viewBox="0 0 396 247" data-background-color="#ffffff" preserveAspectRatio="xMidYMid meet" height="935" width="1500" xmlns="http://www.w3.org/2000/svg" xmlns:xlink="http://www.w3.org/1999/xlink"><g id="tight-bounds" transform="matrix(1,0,0,1,0.2400000000000091,-0.09999999999999432)"><svg viewBox="0 0 395.52 247.2" height="247.2" width="395.52"><g><svg></svg></g><g><svg viewBox="0 0 395.52 247.2" height="247.2" width="395.52"><g transform="matrix(1,0,0,1,75.54432000000001,111.58261094033412)"><svg viewBox="0 0 244.43135999999996 24.034778119331744" height="24.034778119331744" width="244.43135999999996"><g><svg viewBox="0 0 244.43135999999996 24.034778119331744" height="24.034778119331744" width="244.43135999999996"><g><svg viewBox="0 0 244.43135999999996 24.034778119331744" height="24.034778119331744" width="244.43135999999996"><g><svg viewBox="0 0 244.43135999999996 24.034778119331744" height="24.034778119331744" width="244.43135999999996"><g id="textblocktransform"><svg viewBox="0 0 244.43135999999996 24.034778119331744" height="24.034778119331744" width="244.43135999999996" id="textblock"><g><svg viewBox="0 0 244.43135999999996 24.034778119331744" height="24.034778119331744" width="244.43135999999996"><g transform="matrix(1,0,0,1,0,0)"><svg width="244.43135999999996" viewBox="1.05 -38.3 523.7 51.5" height="24.034778119331744" data-palette-color="#89939e"><path d="M30.25-33.35L30.25-25.8 28.75-25.8 27.05-31.55 18.2-31.65 18.2-1.65 22.85-1.2 22.85 0 8.4 0 8.4-1.2 13.05-1.65 13.05-31.65 4.2-31.55 2.5-25.8 1.05-25.8 1.05-33.35 15.65-33.45 30.25-33.35ZM41.5 0.55Q36.35 0.55 33.2-2.95 30.05-6.45 30.05-12.2 30.05-17.95 33.37-21.45 36.7-24.95 41.75-24.95 46.8-24.95 49.3-22.68 51.8-20.4 51.8-16.35L51.8-16.35Q51.8-15.15 51.6-13.95L51.6-13.95 35.45-13.95 35.45-12.2Q35.45-6.6 37.05-3.73 38.65-0.85 42.3-0.85L42.3-0.85Q47.45-0.85 50.25-5.35L50.25-5.35Q51.35-5 51.35-4.3L51.35-4.3Q51.35-3.05 49.05-1.4L49.05-1.4Q47.95-0.6 45.95-0.03 43.95 0.55 41.5 0.55L41.5 0.55ZM47.05-17.4L47.05-17.4Q47.05-19.7 46.1-21.35L46.1-21.35Q44.8-23.55 41.9-23.55L41.9-23.55Q36.5-23.55 35.6-15.75L35.6-15.75 46.95-15.75Q47.05-16.6 47.05-17.4ZM68.95-24.95L68.95-24.95Q71.75-24.95 74.34-23.75L74.34-23.75Q75.8-23.1 76.67-21.75 77.55-20.4 77.55-18.6 77.55-16.8 75.95-16.15L75.95-16.15Q75.3-15.9 74.57-15.9 73.84-15.9 73.09-16.4L73.09-16.4Q73.3-17.45 73.3-18.88 73.3-20.3 72.4-21.6L72.4-21.6Q71.09-23.55 68.7-23.55L68.7-23.55Q61.75-23.55 61.75-12.1L61.75-12.1Q61.75-6.5 63.37-3.68 65-0.85 68.65-0.85L68.65-0.85Q73.3-0.85 76.09-5.35L76.09-5.35Q77.2-5 77.2-4.28 77.2-3.55 76.27-2.48 75.34-1.4 73.07-0.43 70.8 0.55 67.84 0.55L67.84 0.55Q62.7 0.55 59.52-2.95 56.34-6.45 56.34-12.2 56.34-17.95 59.77-21.45 63.2-24.95 68.95-24.95ZM97.54-24.75L97.54-24.75Q105.54-24.75 105.54-17.05L105.54-17.05Q105.54-11.5 105.19-1.45L105.19-1.45 108.74-1.2 108.74 0 97.59 0 97.59-1.2 100.29-1.4Q100.64-14.6 100.64-17.43 100.64-20.25 99.59-21.65 98.54-23.05 95.97-23.05 93.39-23.05 91.14-20.6 88.89-18.15 88.89-16.1L88.89-16.1 88.89-1.45 92.19-1.2 92.19 0 80.69 0 80.69-1.2 83.99-1.45 83.99-35.9 79.59-36.1 79.54-37.25 88.89-38.3Q88.59-21.15 88.54-20L88.54-20 88.94-20Q90.29-22.3 92.57-23.53 94.84-24.75 97.54-24.75ZM111.69-32.2L111.69-33.4 125.54-33.4 125.54-32.2 121.19-31.75 121.19-1.6 133.79-1.75 136.14-7.45 137.44-7.45 136.84 0 111.69 0 111.69-1.2 116.04-1.65 116.04-31.75 111.69-32.2ZM151.89 0.55Q146.74 0.55 143.59-2.95 140.44-6.45 140.44-12.2 140.44-17.95 143.76-21.45 147.09-24.95 152.14-24.95 157.19-24.95 159.69-22.68 162.19-20.4 162.19-16.35L162.19-16.35Q162.19-15.15 161.99-13.95L161.99-13.95 145.84-13.95 145.84-12.2Q145.84-6.6 147.44-3.73 149.04-0.85 152.69-0.85L152.69-0.85Q157.84-0.85 160.64-5.35L160.64-5.35Q161.74-5 161.74-4.3L161.74-4.3Q161.74-3.05 159.44-1.4L159.44-1.4Q158.34-0.6 156.34-0.03 154.34 0.55 151.89 0.55L151.89 0.55ZM157.44-17.4L157.44-17.4Q157.44-19.7 156.49-21.35L156.49-21.35Q155.19-23.55 152.29-23.55L152.29-23.55Q146.89-23.55 145.99-15.75L145.99-15.75 157.34-15.75Q157.44-16.6 157.44-17.4ZM172.74-5L172.74-5Q172.74-3.85 174.36-3.48 175.99-3.1 181.14-2.65 186.29-2.2 188.54-0.83 190.79 0.55 190.79 3.6L190.79 3.6Q190.79 7.5 187.11 10.25 183.44 13 177.59 13 171.74 13 168.99 11.13 166.24 9.25 166.24 6.15L166.24 6.15Q166.24 4.1 167.59 2.27 168.94 0.45 171.54-0.3L171.54-0.3Q168.49-1.4 168.49-3.95L168.49-3.95Q168.49-5.45 170.04-6.48 171.59-7.5 173.54-7.75L173.54-7.75Q170.39-8.65 168.69-10.88 166.99-13.1 166.99-16.1L166.99-16.1Q166.99-19.95 169.86-22.45 172.74-24.95 177.64-24.95L177.64-24.95Q179.04-24.95 180.69-24.6L180.69-24.6Q182.14-24.95 182.99-26.1L182.99-26.1Q183.89-27.35 183.89-28.75 183.89-30.15 183.74-31.15L183.74-31.15Q184.44-31.45 185.14-31.45 185.84-31.45 186.54-31.1L186.54-31.1Q187.89-30.4 187.89-28.68 187.89-26.95 186.24-25.65 184.59-24.35 182.29-24.15L182.29-24.15Q184.99-23.15 186.44-21.03 187.89-18.9 187.89-16.1L187.89-16.1Q187.89-11.9 184.66-9.6 181.44-7.3 176.74-7.3L176.74-7.3Q174.99-7.25 173.86-6.53 172.74-5.8 172.74-5ZM170.09 5.6L170.09 5.6Q170.09 8.25 172.26 9.83 174.44 11.4 177.91 11.4 181.39 11.4 184.14 9.65 186.89 7.9 186.94 5.25L186.94 5.25Q186.94 3.55 185.84 2.7L185.84 2.7Q184.89 1.95 183.19 1.7 181.49 1.45 178.46 1.13 175.44 0.8 173.29 0.35L173.29 0.35Q171.94 1.05 171.01 2.53 170.09 4 170.09 5.6ZM177.29-8.35L177.29-8.35Q180.09-8.35 181.44-10.5 182.79-12.65 182.79-16.1L182.79-16.1Q182.79-23.85 177.64-23.85L177.64-23.85Q174.84-23.85 173.46-21.78 172.09-19.7 172.09-16.1L172.09-16.1Q172.09-8.35 177.29-8.35ZM197.28-5.4L197.28-5.4Q197.28-2.15 199.93-1.55L199.93-1.55Q200.53-1.4 201.08-1.4L201.08-1.4Q202.98-1.4 205.03-3.03 207.08-4.65 207.18-7.4L207.18-7.4 207.18-11.7Q197.28-11.6 197.28-5.4ZM199.28 0.6L199.28 0.6Q196.43 0.6 194.41-0.98 192.38-2.55 192.38-5.4L192.38-5.4Q192.43-9.25 196.26-11.15 200.08-13.05 207.18-13.05L207.18-13.05 207.18-17.35Q207.18-23.7 202.58-23.7L202.58-23.7Q200.23-23.7 198.78-21.75L198.78-21.75Q197.78-20.4 197.78-18.4L197.78-18.4Q197.78-17.55 197.98-16.6L197.98-16.6Q197.28-16.1 196.56-16.1 195.83-16.1 195.13-16.4L195.13-16.4Q193.53-17 193.53-18.7L193.53-18.7Q193.53-21 195.18-22.5L195.18-22.5Q197.88-24.95 202.63-24.95 207.38-24.95 209.53-22.93 211.68-20.9 211.68-16.55L211.68-16.55 211.68-1.4 215.88-1.2 215.93-0.05 207.58 0.55 207.13-3.9Q204.83 0.6 199.28 0.6ZM230.93-24.95L230.93-24.95Q233.73-24.95 236.33-23.75L236.33-23.75Q237.78-23.1 238.66-21.75 239.53-20.4 239.53-18.6 239.53-16.8 237.93-16.15L237.93-16.15Q237.28-15.9 236.56-15.9 235.83-15.9 235.08-16.4L235.08-16.4Q235.28-17.45 235.28-18.88 235.28-20.3 234.38-21.6L234.38-21.6Q233.08-23.55 230.68-23.55L230.68-23.55Q223.73-23.55 223.73-12.1L223.73-12.1Q223.73-6.5 225.36-3.68 226.98-0.85 230.63-0.85L230.63-0.85Q235.28-0.85 238.08-5.35L238.08-5.35Q239.18-5 239.18-4.28 239.18-3.55 238.26-2.48 237.33-1.4 235.06-0.43 232.78 0.55 229.83 0.55L229.83 0.55Q224.68 0.55 221.51-2.95 218.33-6.45 218.33-12.2 218.33-17.95 221.76-21.45 225.18-24.95 230.93-24.95ZM250.45 10.2Q249.43 11.35 247.88 12.28 246.33 13.2 244.75 13.2 243.18 13.2 242.3 12.38 241.43 11.55 241.43 10.18 241.43 8.8 242.68 7.4L242.68 7.4Q244.08 9 245.83 9L245.83 9Q248.33 9 250.13 6.83 251.93 4.65 253.63 0L253.63 0 244.03-22.8 241.48-23.1 241.48-24.4 252.13-24.4 252.13-23.1 248.68-22.8 255.83-5.35 261.98-22.15 257.98-23.1 257.98-24.4 267.58-24.4 267.58-23.1 264.08-22.15 255.63 0Q254.73 2.3 254.23 3.55 253.73 4.8 252.6 6.93 251.48 9.05 250.45 10.2ZM282.68-1.2L282.68 0 268.83 0 268.83-1.2 273.18-1.65 273.18-31.75 268.83-32.2 268.83-33.4 282.68-33.4 282.68-32.2 278.33-31.75 278.33-1.65 282.68-1.2ZM294.37-19.15L294.82-19.1Q297.07-24.9 303.87-24.9L303.87-24.9Q307.27-24.9 309.37-22.88 311.47-20.85 311.47-17.1L311.47-17.1Q311.47-10.65 311.07-1.45L311.07-1.45 314.52-1.2 314.52 0 303.47 0 303.47-1.2 306.17-1.4Q306.57-12.7 306.57-14.35 306.57-16 306.52-16.88 306.47-17.75 306.25-19.03 306.02-20.3 305.57-21.05L305.57-21.05Q304.47-22.9 302.12-22.9L302.12-22.9Q298.92-22.9 296.87-20.25 294.82-17.6 294.82-14.5L294.82-14.5 294.82-1.45 298.57-1.2 298.57 0 286.62 0 286.62-1.2 289.92-1.45 289.92-22.6 285.67-22.8 285.67-23.95 294.62-24.55 294.37-19.15ZM333.02-5.2L333.02-5.2Q333.02-5.05 332.97-4.85L332.97-4.85Q332.17-2.4 330.3-0.93 328.42 0.55 325.92 0.55 323.42 0.55 321.75-0.88 320.07-2.3 320.07-6.45L320.07-6.45Q320.07-7.6 320.32-23.1L320.32-23.1 316.87-23.1 316.87-24.4 320.37-24.4 320.42-31.75 325.32-31.75 325.17-24.4 332.32-24.4 332.32-23.1 325.17-23.1Q324.92-6.95 324.92-4.2L324.92-4.2Q324.92-0.85 327.12-0.85L327.12-0.85Q328.47-0.85 329.95-2.4 331.42-3.95 332.02-5.9L332.02-5.9Q333.02-5.9 333.02-5.2ZM347.52 0.55Q342.37 0.55 339.22-2.95 336.07-6.45 336.07-12.2 336.07-17.95 339.39-21.45 342.72-24.95 347.77-24.95 352.82-24.95 355.32-22.68 357.82-20.4 357.82-16.35L357.82-16.35Q357.82-15.15 357.62-13.95L357.62-13.95 341.47-13.95 341.47-12.2Q341.47-6.6 343.07-3.73 344.67-0.85 348.32-0.85L348.32-0.85Q353.47-0.85 356.27-5.35L356.27-5.35Q357.37-5 357.37-4.3L357.37-4.3Q357.37-3.05 355.07-1.4L355.07-1.4Q353.97-0.6 351.97-0.03 349.97 0.55 347.52 0.55L347.52 0.55ZM353.07-17.4L353.07-17.4Q353.07-19.7 352.12-21.35L352.12-21.35Q350.82-23.55 347.92-23.55L347.92-23.55Q342.52-23.55 341.62-15.75L341.62-15.75 352.97-15.75Q353.07-16.6 353.07-17.4ZM368.37-5L368.37-5Q368.37-3.85 369.99-3.48 371.62-3.1 376.77-2.65 381.92-2.2 384.17-0.83 386.42 0.55 386.42 3.6L386.42 3.6Q386.42 7.5 382.74 10.25 379.07 13 373.22 13 367.37 13 364.62 11.13 361.87 9.25 361.87 6.15L361.87 6.15Q361.87 4.1 363.22 2.27 364.57 0.45 367.17-0.3L367.17-0.3Q364.12-1.4 364.12-3.95L364.12-3.95Q364.12-5.45 365.67-6.48 367.22-7.5 369.17-7.75L369.17-7.75Q366.02-8.65 364.32-10.88 362.62-13.1 362.62-16.1L362.62-16.1Q362.62-19.95 365.49-22.45 368.37-24.95 373.27-24.95L373.27-24.95Q374.67-24.95 376.32-24.6L376.32-24.6Q377.77-24.95 378.62-26.1L378.62-26.1Q379.52-27.35 379.52-28.75 379.52-30.15 379.37-31.15L379.37-31.15Q380.07-31.45 380.77-31.45 381.47-31.45 382.17-31.1L382.17-31.1Q383.52-30.4 383.52-28.68 383.52-26.95 381.87-25.65 380.22-24.35 377.92-24.15L377.92-24.15Q380.62-23.15 382.07-21.03 383.52-18.9 383.52-16.1L383.52-16.1Q383.52-11.9 380.29-9.6 377.07-7.3 372.37-7.3L372.37-7.3Q370.62-7.25 369.49-6.53 368.37-5.8 368.37-5ZM365.72 5.6L365.72 5.6Q365.72 8.25 367.89 9.83 370.07 11.4 373.54 11.4 377.02 11.4 379.77 9.65 382.52 7.9 382.57 5.25L382.57 5.25Q382.57 3.55 381.47 2.7L381.47 2.7Q380.52 1.95 378.82 1.7 377.12 1.45 374.09 1.13 371.07 0.8 368.92 0.35L368.92 0.35Q367.57 1.05 366.64 2.53 365.72 4 365.72 5.6ZM372.92-8.35L372.92-8.35Q375.72-8.35 377.07-10.5 378.42-12.65 378.42-16.1L378.42-16.1Q378.42-23.85 373.27-23.85L373.27-23.85Q370.47-23.85 369.09-21.78 367.72-19.7 367.72-16.1L367.72-16.1Q367.72-8.35 372.92-8.35ZM403.56-25L403.56-25Q404.86-25 405.61-24.38 406.36-23.75 406.36-22.65L406.36-22.65Q406.36-20.75 404.91-20.15L404.91-20.15Q404.11-20.8 402.01-20.8 399.91-20.8 397.99-19.43 396.06-18.05 396.06-16.3L396.06-16.3 396.06-1.45 400.56-1.2 400.56 0 387.86 0 387.86-1.2 391.16-1.4 391.16-22.75 387.21-22.95 387.21-24.1 396.06-24.65 395.76-18.5 395.96-18.5Q396.81-21.2 399.09-23.1 401.36-25 403.56-25ZM413.86-5.4L413.86-5.4Q413.86-2.15 416.51-1.55L416.51-1.55Q417.11-1.4 417.66-1.4L417.66-1.4Q419.56-1.4 421.61-3.03 423.66-4.65 423.76-7.4L423.76-7.4 423.76-11.7Q413.86-11.6 413.86-5.4ZM415.86 0.6L415.86 0.6Q413.01 0.6 410.99-0.98 408.96-2.55 408.96-5.4L408.96-5.4Q409.01-9.25 412.84-11.15 416.66-13.05 423.76-13.05L423.76-13.05 423.76-17.35Q423.76-23.7 419.16-23.7L419.16-23.7Q416.81-23.7 415.36-21.75L415.36-21.75Q414.36-20.4 414.36-18.4L414.36-18.4Q414.36-17.55 414.56-16.6L414.56-16.6Q413.86-16.1 413.14-16.1 412.41-16.1 411.71-16.4L411.71-16.4Q410.11-17 410.11-18.7L410.11-18.7Q410.11-21 411.76-22.5L411.76-22.5Q414.46-24.95 419.21-24.95 423.96-24.95 426.11-22.93 428.26-20.9 428.26-16.55L428.26-16.55 428.26-1.4 432.46-1.2 432.51-0.05 424.16 0.55 423.71-3.9Q421.41 0.6 415.86 0.6ZM449.96-5.2L449.96-5.2Q449.96-5.05 449.91-4.85L449.91-4.85Q449.11-2.4 447.23-0.93 445.36 0.55 442.86 0.55 440.36 0.55 438.68-0.88 437.01-2.3 437.01-6.45L437.01-6.45Q437.01-7.6 437.26-23.1L437.26-23.1 433.81-23.1 433.81-24.4 437.31-24.4 437.36-31.75 442.26-31.75 442.11-24.4 449.26-24.4 449.26-23.1 442.11-23.1Q441.86-6.95 441.86-4.2L441.86-4.2Q441.86-0.85 444.06-0.85L444.06-0.85Q445.41-0.85 446.88-2.4 448.36-3.95 448.96-5.9L448.96-5.9Q449.96-5.9 449.96-5.2ZM461.21-32.58Q461.21-31.35 460.36-30.48 459.51-29.6 458.23-29.6 456.96-29.6 456.11-30.45 455.26-31.3 455.26-32.58 455.26-33.85 456.11-34.73 456.96-35.6 458.21-35.6 459.46-35.6 460.33-34.7 461.21-33.8 461.21-32.58ZM464.21 0L452.71 0 452.71-1.2 456.01-1.45 456.01-22.7 451.61-22.85 451.61-24 460.91-24.65 460.91-1.45 464.21-1.2 464.21 0ZM492.6-12.2Q492.6-6.65 489.25-3.05 485.9 0.55 480.13 0.55 474.35 0.55 471-3.05 467.65-6.65 467.65-12.2 467.65-17.75 471-21.35 474.35-24.95 480.13-24.95 485.9-24.95 489.25-21.35 492.6-17.75 492.6-12.2ZM473.1-12.2L473.1-12.2Q473.1-0.65 480.13-0.65 487.15-0.65 487.15-12.2L487.15-12.2Q487.15-17.8 485.55-20.75 483.95-23.7 480.15-23.7 476.35-23.7 474.73-20.75 473.1-17.8 473.1-12.2ZM504.6-19.15L505.05-19.1Q507.3-24.9 514.1-24.9L514.1-24.9Q517.5-24.9 519.6-22.88 521.7-20.85 521.7-17.1L521.7-17.1Q521.7-10.65 521.3-1.45L521.3-1.45 524.75-1.2 524.75 0 513.7 0 513.7-1.2 516.4-1.4Q516.8-12.7 516.8-14.35 516.8-16 516.75-16.88 516.7-17.75 516.48-19.03 516.25-20.3 515.8-21.05L515.8-21.05Q514.7-22.9 512.35-22.9L512.35-22.9Q509.15-22.9 507.1-20.25 505.05-17.6 505.05-14.5L505.05-14.5 505.05-1.45 508.8-1.2 508.8 0 496.85 0 496.85-1.2 500.15-1.45 500.15-22.6 495.9-22.8 495.9-23.95 504.85-24.55 504.6-19.15Z" opacity="1" transform="matrix(1,0,0,1,0,0)" fill="#000000" class="wordmark-text-0" data-fill-palette-color="primary" id="text-0"></path></svg></g></svg></g></svg></g></svg></g></svg></g></svg></g></svg></g><path d="M170.982 105.583L170.982 40.373 4.529 40.373 4.529 206.827 170.982 206.827 170.982 141.617 168.815 141.617 168.815 204.659 6.696 204.659 6.696 42.541 168.815 42.541 168.815 105.583Z" fill="#000000" stroke="transparent" data-fill-palette-color="tertiary"></path></svg></g><defs></defs></svg><rect width="395.52" height="247.2" fill="none" stroke="none" visibility="hidden"></rect></g></svg></g></svg>